<?xml version="1.0" encoding="utf-8"?>
<!-- Generator: Adobe Illustrator 16.0.0, SVG Export Plug-In . SVG Version: 6.00 Build 0)  -->
<!DOCTYPE svg PUBLIC "-//W3C//DTD SVG 1.1//EN" "http://www.w3.org/Graphics/SVG/1.1/DTD/svg11.dtd">
<svg version="1.1" id="Layer_1" xmlns="http://www.w3.org/2000/svg" xmlns:xlink="http://www.w3.org/1999/xlink" x="0px" y="0px"
	 width="22.625px" height="30.5px" viewBox="0 0 22.625 30.5" enable-background="new 0 0 22.625 30.5" xml:space="preserve">
<g>
	<path fill="none" d="M10.517,0.879c-4.963,0-8.992,4.025-8.992,8.996c0,4.966,4.029,8.996,8.992,8.996
		c4.975,0,9.002-4.03,9.002-8.996C19.519,4.904,15.491,0.879,10.517,0.879z"/>
</g>
<path fill="#EA8024" d="M22.195,9.547c-0.656-4.898-5.887-8.994-10.911-8.994c-5.023,0-9.788,4.135-10.729,8.994
	c-1.314,6.771,3.42,12.698,4.407,14.198c3.068,4.009,6.324,6.755,6.324,6.755s3.407-2.742,6.444-6.847
	C18.886,21.852,23.211,17.118,22.195,9.547z"/>
</svg>
