<?xml version="1.0" encoding="utf-8"?>
<!-- Generator: Adobe Illustrator 16.0.0, SVG Export Plug-In . SVG Version: 6.00 Build 0)  -->
<!DOCTYPE svg PUBLIC "-//W3C//DTD SVG 1.1//EN" "http://www.w3.org/Graphics/SVG/1.1/DTD/svg11.dtd">
<svg version="1.1" id="Layer_1" xmlns="http://www.w3.org/2000/svg" xmlns:xlink="http://www.w3.org/1999/xlink" x="0px" y="0px"
	 width="22.625px" height="30.5px" viewBox="0 0 22.625 30.5" enable-background="new 0 0 22.625 30.5" xml:space="preserve">
<path fill="#8D64AA" d="M22.17,9.271c-0.656-4.898-5.887-8.994-10.911-8.994c-5.023,0-9.788,4.135-10.729,8.994
	c-1.314,6.771,3.42,12.698,4.407,14.198c3.068,4.009,6.324,6.755,6.324,6.755s3.407-2.742,6.444-6.848
	C18.861,21.575,23.186,16.842,22.17,9.271z"/>
<path fill="#FFFFFF" d="M15.785,13.46c0.318,0.107,0.635,0.389,0.635,0.811c0,0.492-0.422,0.918-0.881,0.918
	c-0.279,0-0.455-0.107-0.701-0.281l-2.96-2.08l0.28,3.595c0.072,0.527-0.313,0.984-0.844,0.984s-0.916-0.457-0.846-0.984
	l0.282-3.595l-2.959,2.08c-0.246,0.174-0.459,0.281-0.705,0.281c-0.491,0-0.881-0.424-0.881-0.918c0-0.387,0.317-0.703,0.637-0.811
	l3.415-1.584l-3.415-1.584c-0.354-0.176-0.637-0.457-0.637-0.846c0-0.493,0.424-0.88,0.881-0.914c0.283,0,0.457,0.104,0.705,0.281
	l2.959,2.076l-0.282-3.555c-0.07-0.562,0.315-1.022,0.846-1.022c0.528,0,0.916,0.459,0.844,0.987l-0.28,3.59l2.96-2.076
	c0.246-0.178,0.455-0.281,0.701-0.281c0.494,0,0.881,0.421,0.881,0.914c0,0.459-0.314,0.707-0.635,0.846l-3.414,1.584L15.785,13.46z
	"/>
</svg>
