<?xml version="1.0" encoding="utf-8"?>
<!-- Generator: Adobe Illustrator 16.0.0, SVG Export Plug-In . SVG Version: 6.00 Build 0)  -->
<!DOCTYPE svg PUBLIC "-//W3C//DTD SVG 1.1//EN" "http://www.w3.org/Graphics/SVG/1.1/DTD/svg11.dtd">
<svg version="1.1" id="Layer_1" xmlns="http://www.w3.org/2000/svg" xmlns:xlink="http://www.w3.org/1999/xlink" x="0px" y="0px"
	 width="22.625px" height="30.5px" viewBox="0 0 22.625 30.5" enable-background="new 0 0 22.625 30.5" xml:space="preserve">
<path fill="#F8951F" d="M22.195,9.244c-0.656-4.898-5.887-8.994-10.91-8.994c-5.023,0-9.788,4.135-10.729,8.994
	c-1.314,6.771,3.42,12.697,4.407,14.197c3.068,4.01,6.324,6.756,6.324,6.756s3.406-2.742,6.443-6.848
	C18.887,21.549,23.211,16.814,22.195,9.244z M15.81,13.553c0.319,0.106,0.635,0.389,0.635,0.81c0,0.493-0.422,0.917-0.88,0.917
	c-0.281,0-0.456-0.107-0.702-0.281l-2.96-2.079l0.281,3.593c0.072,0.527-0.316,0.985-0.845,0.985c-0.529,0-0.916-0.458-0.846-0.985
	l0.283-3.593l-2.958,2.079c-0.247,0.174-0.459,0.281-0.706,0.281c-0.492,0-0.88-0.423-0.88-0.917c0-0.387,0.317-0.704,0.635-0.81
	l3.415-1.584l-3.415-1.584c-0.353-0.176-0.635-0.458-0.635-0.846c0-0.493,0.423-0.88,0.88-0.914c0.283,0,0.458,0.104,0.706,0.281
	l2.958,2.077l-0.283-3.556c-0.07-0.563,0.317-1.022,0.846-1.022c0.528,0,0.917,0.459,0.845,0.987l-0.281,3.591l2.96-2.077
	c0.246-0.177,0.456-0.281,0.702-0.281c0.493,0,0.88,0.421,0.88,0.914c0,0.459-0.315,0.706-0.635,0.846l-3.414,1.584L15.81,13.553z"
	/>
</svg>
