<?xml version="1.0" encoding="utf-8"?>
<!-- Generator: Adobe Illustrator 16.0.0, SVG Export Plug-In . SVG Version: 6.00 Build 0)  -->
<!DOCTYPE svg PUBLIC "-//W3C//DTD SVG 1.1//EN" "http://www.w3.org/Graphics/SVG/1.1/DTD/svg11.dtd">
<svg version="1.1" id="Layer_1" xmlns="http://www.w3.org/2000/svg" xmlns:xlink="http://www.w3.org/1999/xlink" x="0px" y="0px"
	 width="29px" height="39px" viewBox="-4.188 -4.25 29 39" enable-background="new -4.188 -4.25 29 39" xml:space="preserve">
<g>
	<path fill="none" d="M9.517,0.879c-4.963,0-8.992,4.025-8.992,8.996c0,4.966,4.029,8.996,8.992,8.996
		c4.975,0,9.002-4.03,9.002-8.996C18.52,4.904,14.491,0.879,9.517,0.879z"/>
</g>
<path fill="#F04E53" d="M23.91,7.749C23.09,1.627,16.552-3.493,10.272-3.493c-6.278,0-12.235,5.168-13.411,11.242
	c-1.643,8.465,4.274,15.872,5.508,17.747c3.836,5.013,7.906,8.444,7.906,8.444s4.258-3.428,8.054-8.559
	C19.774,23.13,25.18,17.212,23.91,7.749z"/>
</svg>
